<?xml version="1.0" encoding="UTF-8"?>
<svg xmlns="http://www.w3.org/2000/svg" xmlns:xlink="http://www.w3.org/1999/xlink" width="450" height="450" viewBox="0 0 450 450">
<defs>
<clipPath id="clip-0-481feb26">
<path clip-rule="nonzero" d="M 29 154 L 408 154 L 408 434 L 29 434 Z M 29 154 "/>
</clipPath>
<clipPath id="clip-1-481feb26">
<path clip-rule="nonzero" d="M 109 47 L 421 47 L 421 434 L 109 434 Z M 109 47 "/>
</clipPath>
<clipPath id="clip-2-481feb26">
<path clip-rule="nonzero" d="M 35 179 L 404 179 L 404 434 L 35 434 Z M 35 179 "/>
</clipPath>
<clipPath id="clip-3-481feb26">
<path clip-rule="nonzero" d="M 45 134 L 410 134 L 410 434 L 45 434 Z M 45 134 "/>
</clipPath>
<clipPath id="clip-4-481feb26">
<path clip-rule="nonzero" d="M 92 30 L 397 30 L 397 434 L 92 434 Z M 92 30 "/>
</clipPath>
</defs>
<path fill-rule="nonzero" fill="rgb(40.000001%, 40.000001%, 40.000001%)" fill-opacity="1" d="M 35 434 L 36.847656 433.933594 L 38.691406 432.957031 L 40.539063 427.007813 L 42.386719 411.976563 L 44.230469 391.832031 L 46.078125 371.484375 L 47.925781 352.238281 L 49.773438 334.21875 L 51.617188 317.277344 L 53.464844 301.402344 L 55.3125 286.617188 L 57.15625 272.933594 L 59.003906 260.199219 L 60.851563 248.464844 L 62.695313 237.707031 L 64.542969 227.863281 L 66.390625 218.945313 L 68.234375 210.601563 L 70.082031 202.894531 L 71.929688 196.101563 L 73.777344 189.65625 L 75.621094 183.996094 L 77.46875 179.679688 L 79.316406 175.757813 L 81.160156 171.957031 L 83.007813 168.617188 L 84.855469 165.917969 L 86.699219 164.007813 L 88.546875 162.359375 L 90.394531 160.785156 L 92.238281 159.925781 L 94.085938 159.511719 L 95.933594 159.644531 L 97.777344 160.277344 L 99.625 161.113281 L 101.472656 162.050781 L 103.320313 163.421875 L 105.164063 165.117188 L 107.011719 166.898438 L 108.859375 169.003906 L 110.703125 171.394531 L 112.550781 173.96875 L 114.398438 176.699219 L 116.242188 179.605469 L 118.089844 182.804688 L 119.9375 186.09375 L 121.78125 189.683594 L 123.628906 193.726563 L 125.476563 197.570313 L 127.324219 201.113281 L 129.167969 204.761719 L 131.015625 208.734375 L 132.863281 212.875 L 134.707031 216.949219 L 136.554688 221.285156 L 138.402344 225.753906 L 140.246094 230.078125 L 142.09375 234.332031 L 143.941406 238.648438 L 145.785156 242.957031 L 147.632813 247.429688 L 149.480469 251.859375 L 151.328125 256.34375 L 153.171875 260.875 L 155.019531 265.226563 L 156.867188 269.46875 L 158.710938 273.707031 L 160.558594 278.117188 L 162.40625 282.523438 L 164.25 286.773438 L 166.097656 291.082031 L 167.945313 295.300781 L 169.789063 299.398438 L 171.636719 303.414063 L 173.484375 307.136719 L 175.332031 310.820313 L 177.175781 314.582031 L 179.023438 318.421875 L 180.871094 322.363281 L 182.714844 326.058594 L 184.5625 329.628906 L 186.410156 333.203125 L 188.253906 336.589844 L 190.101563 339.9375 L 191.949219 343.378906 L 193.792969 346.671875 L 195.640625 349.925781 L 197.488281 353.011719 L 199.332031 356.035156 L 201.179688 359.050781 L 203.027344 361.902344 L 204.875 364.785156 L 206.71875 367.464844 L 208.566406 370.164063 L 210.414063 372.945313 L 212.257813 375.496094 L 214.105469 377.898438 L 215.953125 380.292969 L 217.796875 382.730469 L 219.644531 385.027344 L 221.492188 387.023438 L 223.335938 388.964844 L 225.183594 391.039063 L 227.03125 393.148438 L 228.878906 395.078125 L 230.722656 396.910156 L 232.570313 398.710938 L 234.417969 400.328125 L 236.261719 401.941406 L 238.109375 403.648438 L 239.957031 405.308594 L 241.800781 406.773438 L 243.648438 408.09375 L 245.496094 409.460938 L 247.339844 410.816406 L 249.1875 412.097656 L 251.035156 413.296875 L 252.882813 414.417969 L 254.726563 415.472656 L 256.574219 416.515625 L 258.421875 417.632813 L 260.265625 418.683594 L 262.113281 419.589844 L 263.960938 420.417969 L 265.804688 421.226563 L 267.652344 422.046875 L 269.5 422.847656 L 271.34375 423.5625 L 273.191406 424.234375 L 275.039063 424.855469 L 276.886719 425.433594 L 278.730469 425.988281 L 280.578125 426.503906 L 282.425781 427.023438 L 284.269531 427.558594 L 286.117188 428.0625 L 287.964844 428.523438 L 289.808594 428.941406 L 291.65625 429.316406 L 293.503906 429.664063 L 295.347656 429.996094 L 297.195313 430.316406 L 299.042969 430.625 L 300.890625 430.902344 L 302.734375 431.164063 L 304.582031 431.394531 L 306.429688 431.617188 L 308.273438 431.832031 L 310.121094 432.027344 L 311.96875 432.195313 L 313.8125 432.371094 L 315.660156 432.535156 L 317.507813 432.667969 L 319.351563 432.800781 L 321.199219 432.921875 L 323.046875 433.039063 L 324.890625 433.132813 L 326.738281 433.214844 L 328.585938 433.308594 L 330.433594 433.390625 L 332.277344 433.464844 L 335.972656 433.574219 L 337.816406 433.625 L 339.664063 433.671875 L 341.511719 433.714844 L 343.355469 433.753906 L 347.050781 433.816406 L 348.894531 433.839844 L 350.742188 433.855469 L 354.4375 433.894531 L 356.28125 433.914063 L 359.976563 433.9375 L 361.820313 433.945313 L 363.667969 433.953125 L 365.515625 433.964844 L 367.359375 433.972656 L 369.207031 433.980469 L 371.054688 433.984375 L 372.898438 433.988281 L 374.746094 433.992188 L 380.285156 433.992188 L 382.132813 433.996094 L 383.980469 433.996094 L 385.824219 434 L 400.597656 434 L 402.445313 433.996094 L 402.445313 434 Z M 35 434 "/>
<g clip-path="url(#clip-0-481feb26)">
<path fill="none" stroke-width="1.8" stroke-linecap="butt" stroke-linejoin="miter" stroke="rgb(0%, 0%, 0%)" stroke-opacity="1" stroke-miterlimit="2" d="M 35 434 L 36.847656 433.933594 L 38.691406 432.957031 L 40.539063 427.007813 L 42.386719 411.976563 L 44.230469 391.832031 L 46.078125 371.484375 L 47.925781 352.238281 L 49.773438 334.21875 L 51.617188 317.277344 L 53.464844 301.402344 L 55.3125 286.617188 L 57.15625 272.933594 L 59.003906 260.199219 L 60.851563 248.464844 L 62.695313 237.707031 L 64.542969 227.863281 L 66.390625 218.945313 L 68.234375 210.601563 L 70.082031 202.894531 L 71.929688 196.101563 L 73.777344 189.65625 L 75.621094 183.996094 L 77.46875 179.679688 L 79.316406 175.757813 L 81.160156 171.957031 L 83.007813 168.617188 L 84.855469 165.917969 L 86.699219 164.007813 L 88.546875 162.359375 L 90.394531 160.785156 L 92.238281 159.925781 L 94.085938 159.511719 L 95.933594 159.644531 L 97.777344 160.277344 L 99.625 161.113281 L 101.472656 162.050781 L 103.320313 163.421875 L 105.164063 165.117188 L 107.011719 166.898438 L 108.859375 169.003906 L 110.703125 171.394531 L 112.550781 173.96875 L 114.398438 176.699219 L 116.242188 179.605469 L 118.089844 182.804688 L 119.9375 186.09375 L 121.78125 189.683594 L 123.628906 193.726563 L 125.476563 197.570313 L 127.324219 201.113281 L 129.167969 204.761719 L 131.015625 208.734375 L 132.863281 212.875 L 134.707031 216.949219 L 136.554688 221.285156 L 138.402344 225.753906 L 140.246094 230.078125 L 142.09375 234.332031 L 143.941406 238.648438 L 145.785156 242.957031 L 147.632813 247.429688 L 149.480469 251.859375 L 151.328125 256.34375 L 153.171875 260.875 L 155.019531 265.226563 L 156.867188 269.46875 L 158.710938 273.707031 L 160.558594 278.117188 L 162.40625 282.523438 L 164.25 286.773438 L 166.097656 291.082031 L 167.945313 295.300781 L 169.789063 299.398438 L 171.636719 303.414063 L 173.484375 307.136719 L 175.332031 310.820313 L 177.175781 314.582031 L 179.023438 318.421875 L 180.871094 322.363281 L 182.714844 326.058594 L 184.5625 329.628906 L 186.410156 333.203125 L 188.253906 336.589844 L 190.101563 339.9375 L 191.949219 343.378906 L 193.792969 346.671875 L 195.640625 349.925781 L 197.488281 353.011719 L 199.332031 356.035156 L 201.179688 359.050781 L 203.027344 361.902344 L 204.875 364.785156 L 206.71875 367.464844 L 208.566406 370.164063 L 210.414063 372.945313 L 212.257813 375.496094 L 214.105469 377.898438 L 215.953125 380.292969 L 217.796875 382.730469 L 219.644531 385.027344 L 221.492188 387.023438 L 223.335938 388.964844 L 225.183594 391.039063 L 227.03125 393.148438 L 228.878906 395.078125 L 230.722656 396.910156 L 232.570313 398.710938 L 234.417969 400.328125 L 236.261719 401.941406 L 238.109375 403.648438 L 239.957031 405.308594 L 241.800781 406.773438 L 243.648438 408.09375 L 245.496094 409.460938 L 247.339844 410.816406 L 249.1875 412.097656 L 251.035156 413.296875 L 252.882813 414.417969 L 254.726563 415.472656 L 256.574219 416.515625 L 258.421875 417.632813 L 260.265625 418.683594 L 262.113281 419.589844 L 263.960938 420.417969 L 265.804688 421.226563 L 267.652344 422.046875 L 269.5 422.847656 L 271.34375 423.5625 L 273.191406 424.234375 L 275.039063 424.855469 L 276.886719 425.433594 L 278.730469 425.988281 L 280.578125 426.503906 L 282.425781 427.023438 L 284.269531 427.558594 L 286.117188 428.0625 L 287.964844 428.523438 L 289.808594 428.941406 L 291.65625 429.316406 L 293.503906 429.664063 L 295.347656 429.996094 L 297.195313 430.316406 L 299.042969 430.625 L 300.890625 430.902344 L 302.734375 431.164063 L 304.582031 431.394531 L 306.429688 431.617188 L 308.273438 431.832031 L 310.121094 432.027344 L 311.96875 432.195313 L 313.8125 432.371094 L 315.660156 432.535156 L 317.507813 432.667969 L 319.351563 432.800781 L 321.199219 432.921875 L 323.046875 433.039063 L 324.890625 433.132813 L 326.738281 433.214844 L 328.585938 433.308594 L 330.433594 433.390625 L 332.277344 433.464844 L 335.972656 433.574219 L 337.816406 433.625 L 339.664063 433.671875 L 341.511719 433.714844 L 343.355469 433.753906 L 347.050781 433.816406 L 348.894531 433.839844 L 350.742188 433.855469 L 354.4375 433.894531 L 356.28125 433.914063 L 359.976563 433.9375 L 361.820313 433.945313 L 363.667969 433.953125 L 365.515625 433.964844 L 367.359375 433.972656 L 369.207031 433.980469 L 371.054688 433.984375 L 372.898438 433.988281 L 374.746094 433.992188 L 380.285156 433.992188 L 382.132813 433.996094 L 383.980469 433.996094 L 385.824219 434 L 400.597656 434 L 402.445313 433.996094 "/>
</g>
<path fill-rule="nonzero" fill="rgb(52.941179%, 0%, 32.156864%)" fill-opacity="0.8" d="M 114.53125 434 L 129.628906 434 L 131.140625 433.996094 L 132.648438 433.996094 L 134.160156 433.992188 L 137.179688 433.992188 L 138.6875 433.988281 L 141.710938 433.988281 L 143.21875 433.984375 L 144.730469 433.976563 L 146.238281 433.972656 L 147.75 433.964844 L 149.257813 433.957031 L 150.769531 433.949219 L 152.277344 433.9375 L 153.789063 433.929688 L 155.296875 433.914063 L 156.808594 433.898438 L 158.316406 433.878906 L 159.828125 433.851563 L 161.335938 433.820313 L 162.847656 433.785156 L 164.359375 433.742188 L 165.867188 433.691406 L 167.378906 433.644531 L 168.886719 433.578125 L 170.398438 433.492188 L 171.90625 433.40625 L 173.417969 433.320313 L 174.925781 433.214844 L 176.4375 433.109375 L 177.945313 432.976563 L 179.457031 432.808594 L 180.964844 432.636719 L 182.476563 432.433594 L 183.984375 432.230469 L 185.496094 431.964844 L 187.007813 431.652344 L 188.515625 431.304688 L 190.027344 430.945313 L 191.535156 430.53125 L 193.046875 430.058594 L 194.554688 429.582031 L 196.066406 429.015625 L 197.574219 428.382813 L 199.085938 427.71875 L 200.59375 426.992188 L 202.105469 426.183594 L 203.613281 425.25 L 205.125 424.207031 L 206.632813 423.09375 L 208.144531 421.96875 L 209.65625 420.738281 L 211.164063 419.40625 L 212.675781 417.914063 L 214.183594 416.210938 L 215.695313 414.429688 L 217.203125 412.507813 L 218.714844 410.472656 L 220.222656 408.167969 L 221.734375 405.671875 L 223.242188 403.007813 L 224.753906 400.253906 L 226.261719 397.179688 L 227.773438 393.957031 L 229.28125 390.582031 L 230.792969 387.15625 L 232.304688 383.515625 L 233.8125 379.574219 L 235.324219 375.402344 L 236.832031 370.8125 L 238.34375 365.882813 L 239.851563 360.925781 L 241.363281 355.746094 L 242.871094 350.148438 L 244.382813 344.332031 L 245.890625 338.601563 L 247.402344 332.386719 L 248.910156 325.675781 L 250.421875 318.96875 L 251.929688 311.988281 L 253.441406 304.960938 L 254.953125 297.398438 L 256.460938 289.523438 L 257.972656 281.796875 L 259.480469 273.59375 L 260.992188 265.449219 L 262.5 257.234375 L 264.011719 248.449219 L 265.519531 239.578125 L 267.03125 230.710938 L 268.539063 221.6875 L 270.050781 212.570313 L 271.558594 203.535156 L 273.070313 194.503906 L 274.578125 185.5625 L 276.089844 176.773438 L 277.601563 167.6875 L 279.109375 158.625 L 280.621094 149.757813 L 282.128906 141.035156 L 283.640625 132.613281 L 285.148438 124.507813 L 286.660156 116.660156 L 288.167969 108.777344 L 289.679688 101.664063 L 291.1875 94.480469 L 292.699219 87.859375 L 294.207031 82.066406 L 295.71875 76.144531 L 297.226563 70.820313 L 298.738281 66.46875 L 300.246094 62.554688 L 301.757813 59.378906 L 303.269531 56.574219 L 304.777344 54.152344 L 306.289063 52.734375 L 307.796875 52.390625 L 309.308594 52.308594 L 310.816406 52.480469 L 312.328125 53.921875 L 313.835938 56.390625 L 315.347656 59.144531 L 316.855469 62.21875 L 318.367188 66.378906 L 319.875 71.300781 L 321.386719 77.3125 L 322.894531 83.894531 L 324.40625 90.425781 L 325.917969 97.925781 L 327.425781 106.148438 L 328.9375 114.386719 L 330.445313 123.761719 L 331.957031 133.476563 L 333.464844 143.820313 L 334.976563 154.546875 L 336.484375 165.132813 L 337.996094 176.488281 L 339.503906 188.199219 L 341.015625 200.027344 L 342.523438 211.503906 L 344.035156 222.988281 L 345.542969 235.078125 L 347.054688 246.847656 L 348.566406 258.464844 L 350.074219 269.933594 L 351.585938 281.46875 L 353.09375 292.617188 L 354.605469 303.390625 L 356.113281 314.09375 L 357.625 324.179688 L 359.132813 333.8125 L 360.644531 343.089844 L 362.152344 352.027344 L 363.664063 360.402344 L 365.171875 368.367188 L 366.683594 375.867188 L 368.191406 382.699219 L 369.703125 389.160156 L 371.214844 394.976563 L 372.722656 400.207031 L 374.234375 404.988281 L 375.742188 409.308594 L 377.253906 413.242188 L 378.761719 416.722656 L 380.273438 419.746094 L 381.78125 422.339844 L 383.292969 424.578125 L 384.800781 426.476563 L 386.3125 428.039063 L 387.820313 429.382813 L 389.332031 430.496094 L 390.839844 431.339844 L 392.351563 432.074219 L 393.863281 432.65625 L 395.371094 433.054688 L 396.882813 433.347656 L 398.390625 433.582031 L 399.902344 433.738281 L 401.410156 433.835938 L 402.921875 433.902344 L 404.429688 433.949219 L 405.941406 433.972656 L 407.449219 433.988281 L 408.960938 433.996094 L 410.46875 433.996094 L 411.980469 434 L 415 434 Z M 114.53125 434 "/>
<g clip-path="url(#clip-1-481feb26)">
<path fill="none" stroke-width="1.8" stroke-linecap="butt" stroke-linejoin="miter" stroke="rgb(30.980393%, 1.568628%, 20%)" stroke-opacity="1" stroke-miterlimit="2" d="M 114.53125 434 L 129.628906 434 L 131.140625 433.996094 L 132.648438 433.996094 L 134.160156 433.992188 L 137.179688 433.992188 L 138.6875 433.988281 L 141.710938 433.988281 L 143.21875 433.984375 L 144.730469 433.976563 L 146.238281 433.972656 L 147.75 433.964844 L 149.257813 433.957031 L 150.769531 433.949219 L 152.277344 433.9375 L 153.789063 433.929688 L 155.296875 433.914063 L 156.808594 433.898438 L 158.316406 433.878906 L 159.828125 433.851563 L 161.335938 433.820313 L 162.847656 433.785156 L 164.359375 433.742188 L 165.867188 433.691406 L 167.378906 433.644531 L 168.886719 433.578125 L 170.398438 433.492188 L 171.90625 433.40625 L 173.417969 433.320313 L 174.925781 433.214844 L 176.4375 433.109375 L 177.945313 432.976563 L 179.457031 432.808594 L 180.964844 432.636719 L 182.476563 432.433594 L 183.984375 432.230469 L 185.496094 431.964844 L 187.007813 431.652344 L 188.515625 431.304688 L 190.027344 430.945313 L 191.535156 430.53125 L 193.046875 430.058594 L 194.554688 429.582031 L 196.066406 429.015625 L 197.574219 428.382813 L 199.085938 427.71875 L 200.59375 426.992188 L 202.105469 426.183594 L 203.613281 425.25 L 205.125 424.207031 L 206.632813 423.09375 L 208.144531 421.96875 L 209.65625 420.738281 L 211.164063 419.40625 L 212.675781 417.914063 L 214.183594 416.210938 L 215.695313 414.429688 L 217.203125 412.507813 L 218.714844 410.472656 L 220.222656 408.167969 L 221.734375 405.671875 L 223.242188 403.007813 L 224.753906 400.253906 L 226.261719 397.179688 L 227.773438 393.957031 L 229.28125 390.582031 L 230.792969 387.15625 L 232.304688 383.515625 L 233.8125 379.574219 L 235.324219 375.402344 L 236.832031 370.8125 L 238.34375 365.882813 L 239.851563 360.925781 L 241.363281 355.746094 L 242.871094 350.148438 L 244.382813 344.332031 L 245.890625 338.601563 L 247.402344 332.386719 L 248.910156 325.675781 L 250.421875 318.96875 L 251.929688 311.988281 L 253.441406 304.960938 L 254.953125 297.398438 L 256.460938 289.523438 L 257.972656 281.796875 L 259.480469 273.59375 L 260.992188 265.449219 L 262.5 257.234375 L 264.011719 248.449219 L 265.519531 239.578125 L 267.03125 230.710938 L 268.539063 221.6875 L 270.050781 212.570313 L 271.558594 203.535156 L 273.070313 194.503906 L 274.578125 185.5625 L 276.089844 176.773438 L 277.601563 167.6875 L 279.109375 158.625 L 280.621094 149.757813 L 282.128906 141.035156 L 283.640625 132.613281 L 285.148438 124.507813 L 286.660156 116.660156 L 288.167969 108.777344 L 289.679688 101.664063 L 291.1875 94.480469 L 292.699219 87.859375 L 294.207031 82.066406 L 295.71875 76.144531 L 297.226563 70.820313 L 298.738281 66.46875 L 300.246094 62.554688 L 301.757813 59.378906 L 303.269531 56.574219 L 304.777344 54.152344 L 306.289063 52.734375 L 307.796875 52.390625 L 309.308594 52.308594 L 310.816406 52.480469 L 312.328125 53.921875 L 313.835938 56.390625 L 315.347656 59.144531 L 316.855469 62.21875 L 318.367188 66.378906 L 319.875 71.300781 L 321.386719 77.3125 L 322.894531 83.894531 L 324.40625 90.425781 L 325.917969 97.925781 L 327.425781 106.148438 L 328.9375 114.386719 L 330.445313 123.761719 L 331.957031 133.476563 L 333.464844 143.820313 L 334.976563 154.546875 L 336.484375 165.132813 L 337.996094 176.488281 L 339.503906 188.199219 L 341.015625 200.027344 L 342.523438 211.503906 L 344.035156 222.988281 L 345.542969 235.078125 L 347.054688 246.847656 L 348.566406 258.464844 L 350.074219 269.933594 L 351.585938 281.46875 L 353.09375 292.617188 L 354.605469 303.390625 L 356.113281 314.09375 L 357.625 324.179688 L 359.132813 333.8125 L 360.644531 343.089844 L 362.152344 352.027344 L 363.664063 360.402344 L 365.171875 368.367188 L 366.683594 375.867188 L 368.191406 382.699219 L 369.703125 389.160156 L 371.214844 394.976563 L 372.722656 400.207031 L 374.234375 404.988281 L 375.742188 409.308594 L 377.253906 413.242188 L 378.761719 416.722656 L 380.273438 419.746094 L 381.78125 422.339844 L 383.292969 424.578125 L 384.800781 426.476563 L 386.3125 428.039063 L 387.820313 429.382813 L 389.332031 430.496094 L 390.839844 431.339844 L 392.351563 432.074219 L 393.863281 432.65625 L 395.371094 433.054688 L 396.882813 433.347656 L 398.390625 433.582031 L 399.902344 433.738281 L 401.410156 433.835938 L 402.921875 433.902344 L 404.429688 433.949219 L 405.941406 433.972656 L 407.449219 433.988281 L 408.960938 433.996094 L 410.46875 433.996094 L 411.980469 434 L 415 434 "/>
</g>
<path fill-rule="nonzero" fill="rgb(100%, 52.941179%, 43.529412%)" fill-opacity="0.2" d="M 36.296875 434 L 38.152344 434 L 40.011719 433.996094 L 41.867188 433.980469 L 43.722656 433.902344 L 45.582031 433.710938 L 47.4375 433.347656 L 49.292969 432.753906 L 51.152344 431.902344 L 53.007813 430.753906 L 54.863281 429.277344 L 56.722656 427.457031 L 58.578125 425.277344 L 60.433594 422.742188 L 62.292969 419.828125 L 64.148438 416.527344 L 66.007813 412.839844 L 67.863281 408.761719 L 69.71875 404.359375 L 71.578125 399.679688 L 73.433594 394.644531 L 75.289063 389.28125 L 77.148438 383.636719 L 79.003906 377.78125 L 80.859375 371.722656 L 82.71875 365.386719 L 84.574219 358.886719 L 86.429688 352.199219 L 88.289063 345.347656 L 90.144531 338.378906 L 92.003906 331.425781 L 93.859375 324.554688 L 95.714844 317.585938 L 97.574219 310.441406 L 99.429688 303.144531 L 101.285156 296.042969 L 103.144531 289.253906 L 105 282.449219 L 106.855469 275.449219 L 108.714844 268.566406 L 110.570313 261.945313 L 112.425781 255.339844 L 114.285156 249.183594 L 116.140625 243.308594 L 118 237.519531 L 119.855469 231.949219 L 121.710938 226.488281 L 123.570313 221.683594 L 125.425781 217.175781 L 127.28125 212.347656 L 129.140625 207.710938 L 130.996094 203.808594 L 132.851563 200.351563 L 134.710938 197.132813 L 136.566406 194.21875 L 138.421875 191.554688 L 140.28125 189.03125 L 142.136719 186.675781 L 143.992188 184.757813 L 145.851563 183.363281 L 147.707031 182.277344 L 149.566406 181.316406 L 151.421875 180.613281 L 153.277344 180.316406 L 155.136719 180.460938 L 156.992188 180.832031 L 158.847656 181.5 L 160.707031 182.355469 L 162.5625 183.335938 L 164.417969 184.566406 L 166.277344 186.132813 L 168.132813 187.78125 L 169.988281 189.632813 L 171.847656 192.15625 L 173.703125 195.054688 L 175.5625 197.71875 L 177.417969 200.433594 L 179.273438 203.554688 L 181.132813 206.882813 L 182.988281 210.371094 L 184.84375 213.964844 L 186.703125 217.734375 L 188.558594 221.898438 L 190.414063 226.277344 L 192.273438 230.464844 L 194.128906 234.59375 L 195.984375 238.625 L 197.84375 242.957031 L 199.699219 247.414063 L 201.554688 251.839844 L 203.414063 256.539063 L 205.269531 261.382813 L 207.128906 266.039063 L 208.984375 270.503906 L 210.839844 275.074219 L 212.699219 279.824219 L 214.554688 284.5625 L 216.410156 289.324219 L 218.269531 294.074219 L 221.980469 303.441406 L 223.839844 308.101563 L 225.695313 312.488281 L 227.550781 316.855469 L 229.410156 321.261719 L 231.265625 325.605469 L 233.125 329.976563 L 234.980469 334.203125 L 236.835938 338.304688 L 238.695313 342.460938 L 240.550781 346.484375 L 242.40625 350.359375 L 244.265625 354.222656 L 246.121094 357.871094 L 247.976563 361.320313 L 249.835938 364.734375 L 251.691406 368.164063 L 253.546875 371.546875 L 255.40625 374.835938 L 257.261719 378.054688 L 259.117188 381.121094 L 260.976563 383.957031 L 262.832031 386.625 L 264.691406 389.207031 L 266.546875 391.84375 L 268.402344 394.429688 L 270.261719 396.789063 L 272.117188 399.035156 L 273.972656 401.257813 L 275.832031 403.457031 L 277.6875 405.480469 L 279.542969 407.324219 L 281.402344 409.09375 L 283.257813 410.851563 L 285.113281 412.53125 L 286.972656 414.066406 L 288.828125 415.542969 L 290.6875 416.988281 L 292.542969 418.347656 L 294.398438 419.519531 L 296.257813 420.574219 L 298.113281 421.632813 L 299.96875 422.675781 L 301.828125 423.65625 L 303.683594 424.597656 L 305.539063 425.46875 L 307.398438 426.207031 L 309.253906 426.847656 L 311.109375 427.492188 L 312.96875 428.125 L 314.824219 428.742188 L 316.683594 429.292969 L 318.539063 429.746094 L 320.394531 430.171875 L 322.253906 430.589844 L 324.109375 430.988281 L 325.964844 431.328125 L 327.824219 431.628906 L 329.679688 431.898438 L 331.535156 432.132813 L 333.394531 432.359375 L 335.25 432.5625 L 337.105469 432.746094 L 338.964844 432.914063 L 340.820313 433.066406 L 342.675781 433.203125 L 344.535156 433.3125 L 346.390625 433.421875 L 348.25 433.511719 L 350.105469 433.578125 L 351.960938 433.640625 L 353.820313 433.699219 L 355.675781 433.757813 L 357.53125 433.804688 L 359.390625 433.832031 L 361.246094 433.863281 L 363.101563 433.886719 L 364.960938 433.90625 L 368.671875 433.945313 L 370.53125 433.957031 L 372.386719 433.964844 L 374.246094 433.972656 L 376.101563 433.980469 L 377.957031 433.984375 L 379.816406 433.988281 L 381.671875 433.992188 L 383.527344 433.992188 L 385.386719 433.996094 L 387.242188 433.996094 L 389.097656 434 L 405.8125 434 Z M 36.296875 434 "/>
<g clip-path="url(#clip-2-481feb26)">
<path fill="none" stroke-width="0.45" stroke-linecap="butt" stroke-linejoin="miter" stroke="rgb(100%, 36.862746%, 23.921569%)" stroke-opacity="0.25" stroke-miterlimit="2" d="M 36.296875 434 L 38.152344 434 L 40.011719 433.996094 L 41.867188 433.980469 L 43.722656 433.902344 L 45.582031 433.710938 L 47.4375 433.347656 L 49.292969 432.753906 L 51.152344 431.902344 L 53.007813 430.753906 L 54.863281 429.277344 L 56.722656 427.457031 L 58.578125 425.277344 L 60.433594 422.742188 L 62.292969 419.828125 L 64.148438 416.527344 L 66.007813 412.839844 L 67.863281 408.761719 L 69.71875 404.359375 L 71.578125 399.679688 L 73.433594 394.644531 L 75.289063 389.28125 L 77.148438 383.636719 L 79.003906 377.78125 L 80.859375 371.722656 L 82.71875 365.386719 L 84.574219 358.886719 L 86.429688 352.199219 L 88.289063 345.347656 L 90.144531 338.378906 L 92.003906 331.425781 L 93.859375 324.554688 L 95.714844 317.585938 L 97.574219 310.441406 L 99.429688 303.144531 L 101.285156 296.042969 L 103.144531 289.253906 L 105 282.449219 L 106.855469 275.449219 L 108.714844 268.566406 L 110.570313 261.945313 L 112.425781 255.339844 L 114.285156 249.183594 L 116.140625 243.308594 L 118 237.519531 L 119.855469 231.949219 L 121.710938 226.488281 L 123.570313 221.683594 L 125.425781 217.175781 L 127.28125 212.347656 L 129.140625 207.710938 L 130.996094 203.808594 L 132.851563 200.351563 L 134.710938 197.132813 L 136.566406 194.21875 L 138.421875 191.554688 L 140.28125 189.03125 L 142.136719 186.675781 L 143.992188 184.757813 L 145.851563 183.363281 L 147.707031 182.277344 L 149.566406 181.316406 L 151.421875 180.613281 L 153.277344 180.316406 L 155.136719 180.460938 L 156.992188 180.832031 L 158.847656 181.5 L 160.707031 182.355469 L 162.5625 183.335938 L 164.417969 184.566406 L 166.277344 186.132813 L 168.132813 187.78125 L 169.988281 189.632813 L 171.847656 192.15625 L 173.703125 195.054688 L 175.5625 197.71875 L 177.417969 200.433594 L 179.273438 203.554688 L 181.132813 206.882813 L 182.988281 210.371094 L 184.84375 213.964844 L 186.703125 217.734375 L 188.558594 221.898438 L 190.414063 226.277344 L 192.273438 230.464844 L 194.128906 234.59375 L 195.984375 238.625 L 197.84375 242.957031 L 199.699219 247.414063 L 201.554688 251.839844 L 203.414063 256.539063 L 205.269531 261.382813 L 207.128906 266.039063 L 208.984375 270.503906 L 210.839844 275.074219 L 212.699219 279.824219 L 214.554688 284.5625 L 216.410156 289.324219 L 218.269531 294.074219 L 221.980469 303.441406 L 223.839844 308.101563 L 225.695313 312.488281 L 227.550781 316.855469 L 229.410156 321.261719 L 231.265625 325.605469 L 233.125 329.976563 L 234.980469 334.203125 L 236.835938 338.304688 L 238.695313 342.460938 L 240.550781 346.484375 L 242.40625 350.359375 L 244.265625 354.222656 L 246.121094 357.871094 L 247.976563 361.320313 L 249.835938 364.734375 L 251.691406 368.164063 L 253.546875 371.546875 L 255.40625 374.835938 L 257.261719 378.054688 L 259.117188 381.121094 L 260.976563 383.957031 L 262.832031 386.625 L 264.691406 389.207031 L 266.546875 391.84375 L 268.402344 394.429688 L 270.261719 396.789063 L 272.117188 399.035156 L 273.972656 401.257813 L 275.832031 403.457031 L 277.6875 405.480469 L 279.542969 407.324219 L 281.402344 409.09375 L 283.257813 410.851563 L 285.113281 412.53125 L 286.972656 414.066406 L 288.828125 415.542969 L 290.6875 416.988281 L 292.542969 418.347656 L 294.398438 419.519531 L 296.257813 420.574219 L 298.113281 421.632813 L 299.96875 422.675781 L 301.828125 423.65625 L 303.683594 424.597656 L 305.539063 425.46875 L 307.398438 426.207031 L 309.253906 426.847656 L 311.109375 427.492188 L 312.96875 428.125 L 314.824219 428.742188 L 316.683594 429.292969 L 318.539063 429.746094 L 320.394531 430.171875 L 322.253906 430.589844 L 324.109375 430.988281 L 325.964844 431.328125 L 327.824219 431.628906 L 329.679688 431.898438 L 331.535156 432.132813 L 333.394531 432.359375 L 335.25 432.5625 L 337.105469 432.746094 L 338.964844 432.914063 L 340.820313 433.066406 L 342.675781 433.203125 L 344.535156 433.3125 L 346.390625 433.421875 L 348.25 433.511719 L 350.105469 433.578125 L 351.960938 433.640625 L 353.820313 433.699219 L 355.675781 433.757813 L 357.53125 433.804688 L 359.390625 433.832031 L 361.246094 433.863281 L 363.101563 433.886719 L 364.960938 433.90625 L 368.671875 433.945313 L 370.53125 433.957031 L 372.386719 433.964844 L 374.246094 433.972656 L 376.101563 433.980469 L 377.957031 433.984375 L 379.816406 433.988281 L 381.671875 433.992188 L 383.527344 433.992188 L 385.386719 433.996094 L 387.242188 433.996094 L 389.097656 434 L 402.097656 434 "/>
</g>
<path fill-rule="nonzero" fill="rgb(100%, 52.941179%, 43.529412%)" fill-opacity="0.4" d="M 48.058594 434 L 58.867188 434 L 60.667969 433.996094 L 64.273438 433.996094 L 66.074219 433.992188 L 69.675781 433.976563 L 71.476563 433.960938 L 73.28125 433.941406 L 75.082031 433.921875 L 76.882813 433.890625 L 78.683594 433.847656 L 80.484375 433.796875 L 82.289063 433.71875 L 84.089844 433.617188 L 85.890625 433.492188 L 87.691406 433.335938 L 89.496094 433.144531 L 91.296875 432.898438 L 93.097656 432.605469 L 94.898438 432.304688 L 96.699219 431.941406 L 98.503906 431.453125 L 100.304688 430.898438 L 102.105469 430.292969 L 103.90625 429.554688 L 105.707031 428.691406 L 107.511719 427.75 L 109.3125 426.652344 L 111.113281 425.429688 L 112.914063 424.042969 L 114.714844 422.53125 L 116.519531 420.839844 L 118.320313 418.875 L 120.121094 416.816406 L 121.921875 414.574219 L 123.726563 412.113281 L 125.527344 409.4375 L 127.328125 406.429688 L 129.128906 403.238281 L 130.929688 399.710938 L 132.734375 396.089844 L 134.535156 392.3125 L 136.335938 388.277344 L 138.136719 383.960938 L 139.9375 379.300781 L 141.742188 374.324219 L 143.542969 369.140625 L 145.34375 363.664063 L 147.144531 358.144531 L 148.949219 352.296875 L 150.75 346.101563 L 152.550781 339.804688 L 154.351563 333.304688 L 156.152344 326.632813 L 157.957031 319.8125 L 159.757813 312.660156 L 161.558594 305.527344 L 163.359375 298.507813 L 165.160156 291.320313 L 166.964844 283.75 L 168.765625 275.910156 L 170.566406 268.15625 L 172.367188 260.535156 L 174.167969 253.023438 L 175.972656 245.617188 L 177.773438 238.292969 L 179.574219 230.773438 L 181.375 223.613281 L 183.179688 216.546875 L 184.980469 209.535156 L 186.78125 202.972656 L 188.582031 196.441406 L 190.382813 190.027344 L 192.1875 184.011719 L 193.988281 178.378906 L 195.789063 172.820313 L 197.589844 167.269531 L 199.390625 162.273438 L 201.195313 158.265625 L 202.996094 154.269531 L 204.796875 150.324219 L 206.597656 146.871094 L 208.398438 144.054688 L 210.203125 141.863281 L 212.003906 140.128906 L 213.804688 138.75 L 215.605469 137.949219 L 217.410156 137.300781 L 219.210938 136.957031 L 221.011719 137.167969 L 222.8125 138.085938 L 224.613281 139.035156 L 226.417969 140.613281 L 228.21875 143.136719 L 230.019531 145.734375 L 231.820313 148.484375 L 233.621094 151.769531 L 235.425781 155.75 L 237.226563 159.742188 L 239.027344 164.230469 L 240.828125 169.320313 L 242.628906 174.632813 L 244.433594 179.972656 L 246.234375 185.742188 L 248.035156 191.855469 L 249.835938 197.628906 L 251.640625 203.90625 L 253.441406 210.757813 L 255.242188 217.917969 L 257.042969 224.609375 L 258.84375 231.542969 L 260.648438 238.691406 L 262.449219 246.078125 L 264.25 253.316406 L 266.050781 260.488281 L 267.851563 267.761719 L 269.65625 275.019531 L 271.457031 282.328125 L 273.257813 289.421875 L 275.058594 296.460938 L 276.859375 303.417969 L 278.664063 310.332031 L 280.464844 316.933594 L 282.265625 323.5 L 284.066406 330.027344 L 285.871094 336.289063 L 287.671875 342.3125 L 289.472656 348.128906 L 291.273438 353.84375 L 293.074219 359.300781 L 294.878906 364.578125 L 296.679688 369.546875 L 298.480469 374.15625 L 300.28125 378.722656 L 302.082031 383.152344 L 303.886719 387.3125 L 305.6875 391.277344 L 307.488281 395.007813 L 309.289063 398.472656 L 311.09375 401.613281 L 312.894531 404.648438 L 314.695313 407.523438 L 316.496094 410.210938 L 318.296875 412.671875 L 320.101563 414.765625 L 321.902344 416.667969 L 323.703125 418.609375 L 325.503906 420.414063 L 327.304688 422.011719 L 329.109375 423.449219 L 330.910156 424.738281 L 332.710938 425.914063 L 334.511719 427.007813 L 336.3125 428 L 338.117188 428.855469 L 339.917969 429.574219 L 341.71875 430.203125 L 343.519531 430.777344 L 345.324219 431.292969 L 347.125 431.714844 L 348.925781 432.085938 L 350.726563 432.433594 L 352.527344 432.714844 L 354.332031 432.945313 L 356.132813 433.132813 L 357.933594 433.292969 L 359.734375 433.4375 L 361.535156 433.5625 L 363.339844 433.648438 L 366.941406 433.78125 L 368.742188 433.835938 L 370.542969 433.875 L 372.347656 433.910156 L 374.148438 433.9375 L 375.949219 433.960938 L 377.75 433.96875 L 379.554688 433.976563 L 383.15625 433.992188 L 384.957031 433.992188 L 386.757813 433.996094 L 388.5625 433.996094 L 390.363281 434 L 406.578125 434 Z M 48.058594 434 "/>
<g clip-path="url(#clip-3-481feb26)">
<path fill="none" stroke-width="0.9" stroke-linecap="butt" stroke-linejoin="miter" stroke="rgb(100%, 36.862746%, 23.921569%)" stroke-opacity="0.5" stroke-miterlimit="2" d="M 48.058594 434 L 58.867188 434 L 60.667969 433.996094 L 64.273438 433.996094 L 66.074219 433.992188 L 69.675781 433.976563 L 71.476563 433.960938 L 73.28125 433.941406 L 75.082031 433.921875 L 76.882813 433.890625 L 78.683594 433.847656 L 80.484375 433.796875 L 82.289063 433.71875 L 84.089844 433.617188 L 85.890625 433.492188 L 87.691406 433.335938 L 89.496094 433.144531 L 91.296875 432.898438 L 93.097656 432.605469 L 94.898438 432.304688 L 96.699219 431.941406 L 98.503906 431.453125 L 100.304688 430.898438 L 102.105469 430.292969 L 103.90625 429.554688 L 105.707031 428.691406 L 107.511719 427.75 L 109.3125 426.652344 L 111.113281 425.429688 L 112.914063 424.042969 L 114.714844 422.53125 L 116.519531 420.839844 L 118.320313 418.875 L 120.121094 416.816406 L 121.921875 414.574219 L 123.726563 412.113281 L 125.527344 409.4375 L 127.328125 406.429688 L 129.128906 403.238281 L 130.929688 399.710938 L 132.734375 396.089844 L 134.535156 392.3125 L 136.335938 388.277344 L 138.136719 383.960938 L 139.9375 379.300781 L 141.742188 374.324219 L 143.542969 369.140625 L 145.34375 363.664063 L 147.144531 358.144531 L 148.949219 352.296875 L 150.75 346.101563 L 152.550781 339.804688 L 154.351563 333.304688 L 156.152344 326.632813 L 157.957031 319.8125 L 159.757813 312.660156 L 161.558594 305.527344 L 163.359375 298.507813 L 165.160156 291.320313 L 166.964844 283.75 L 168.765625 275.910156 L 170.566406 268.15625 L 172.367188 260.535156 L 174.167969 253.023438 L 175.972656 245.617188 L 177.773438 238.292969 L 179.574219 230.773438 L 181.375 223.613281 L 183.179688 216.546875 L 184.980469 209.535156 L 186.78125 202.972656 L 188.582031 196.441406 L 190.382813 190.027344 L 192.1875 184.011719 L 193.988281 178.378906 L 195.789063 172.820313 L 197.589844 167.269531 L 199.390625 162.273438 L 201.195313 158.265625 L 202.996094 154.269531 L 204.796875 150.324219 L 206.597656 146.871094 L 208.398438 144.054688 L 210.203125 141.863281 L 212.003906 140.128906 L 213.804688 138.75 L 215.605469 137.949219 L 217.410156 137.300781 L 219.210938 136.957031 L 221.011719 137.167969 L 222.8125 138.085938 L 224.613281 139.035156 L 226.417969 140.613281 L 228.21875 143.136719 L 230.019531 145.734375 L 231.820313 148.484375 L 233.621094 151.769531 L 235.425781 155.75 L 237.226563 159.742188 L 239.027344 164.230469 L 240.828125 169.320313 L 242.628906 174.632813 L 244.433594 179.972656 L 246.234375 185.742188 L 248.035156 191.855469 L 249.835938 197.628906 L 251.640625 203.90625 L 253.441406 210.757813 L 255.242188 217.917969 L 257.042969 224.609375 L 258.84375 231.542969 L 260.648438 238.691406 L 262.449219 246.078125 L 264.25 253.316406 L 266.050781 260.488281 L 267.851563 267.761719 L 269.65625 275.019531 L 271.457031 282.328125 L 273.257813 289.421875 L 275.058594 296.460938 L 276.859375 303.417969 L 278.664063 310.332031 L 280.464844 316.933594 L 282.265625 323.5 L 284.066406 330.027344 L 285.871094 336.289063 L 287.671875 342.3125 L 289.472656 348.128906 L 291.273438 353.84375 L 293.074219 359.300781 L 294.878906 364.578125 L 296.679688 369.546875 L 298.480469 374.15625 L 300.28125 378.722656 L 302.082031 383.152344 L 303.886719 387.3125 L 305.6875 391.277344 L 307.488281 395.007813 L 309.289063 398.472656 L 311.09375 401.613281 L 312.894531 404.648438 L 314.695313 407.523438 L 316.496094 410.210938 L 318.296875 412.671875 L 320.101563 414.765625 L 321.902344 416.667969 L 323.703125 418.609375 L 325.503906 420.414063 L 327.304688 422.011719 L 329.109375 423.449219 L 330.910156 424.738281 L 332.710938 425.914063 L 334.511719 427.007813 L 336.3125 428 L 338.117188 428.855469 L 339.917969 429.574219 L 341.71875 430.203125 L 343.519531 430.777344 L 345.324219 431.292969 L 347.125 431.714844 L 348.925781 432.085938 L 350.726563 432.433594 L 352.527344 432.714844 L 354.332031 432.945313 L 356.132813 433.132813 L 357.933594 433.292969 L 359.734375 433.4375 L 361.535156 433.5625 L 363.339844 433.648438 L 366.941406 433.78125 L 368.742188 433.835938 L 370.542969 433.875 L 372.347656 433.910156 L 374.148438 433.9375 L 375.949219 433.960938 L 377.75 433.96875 L 379.554688 433.976563 L 383.15625 433.992188 L 384.957031 433.992188 L 386.757813 433.996094 L 388.5625 433.996094 L 390.363281 434 L 406.578125 434 "/>
</g>
<path fill-rule="nonzero" fill="rgb(100%, 52.941179%, 43.529412%)" fill-opacity="0.8" d="M 97.914063 434 L 105.285156 434 L 106.757813 433.996094 L 114.125 433.996094 L 115.597656 433.992188 L 117.074219 433.988281 L 121.492188 433.976563 L 122.96875 433.96875 L 125.914063 433.953125 L 127.386719 433.941406 L 128.863281 433.925781 L 130.335938 433.90625 L 131.808594 433.890625 L 133.28125 433.859375 L 134.757813 433.816406 L 136.230469 433.769531 L 137.703125 433.714844 L 139.175781 433.644531 L 140.652344 433.5625 L 142.125 433.484375 L 143.597656 433.378906 L 145.070313 433.253906 L 146.546875 433.113281 L 148.019531 432.945313 L 149.492188 432.746094 L 150.96875 432.484375 L 152.441406 432.234375 L 153.914063 431.933594 L 155.386719 431.527344 L 156.863281 431.101563 L 158.335938 430.660156 L 159.808594 430.148438 L 161.28125 429.515625 L 162.757813 428.808594 L 164.230469 427.996094 L 165.703125 427.09375 L 167.175781 426.132813 L 168.652344 425.027344 L 170.125 423.824219 L 171.597656 422.53125 L 173.070313 421.023438 L 174.546875 419.253906 L 176.019531 417.320313 L 177.492188 415.304688 L 178.964844 413.132813 L 180.441406 410.707031 L 181.914063 408.109375 L 183.386719 405.226563 L 184.859375 401.972656 L 186.335938 398.480469 L 187.808594 394.742188 L 189.28125 390.859375 L 190.753906 386.8125 L 192.230469 382.171875 L 193.703125 377.253906 L 195.175781 372.105469 L 196.648438 366.546875 L 198.125 360.839844 L 199.597656 354.8125 L 201.070313 348.382813 L 202.542969 341.75 L 204.019531 334.34375 L 205.492188 326.65625 L 206.964844 318.945313 L 208.4375 311.046875 L 209.914063 302.644531 L 211.386719 293.984375 L 212.859375 285.039063 L 214.332031 275.589844 L 215.808594 265.867188 L 217.28125 255.902344 L 218.753906 246.15625 L 220.226563 236.21875 L 221.703125 225.929688 L 223.175781 215.433594 L 224.648438 204.925781 L 226.121094 194.65625 L 227.597656 184.660156 L 229.070313 174.324219 L 230.542969 163.625 L 232.015625 153.441406 L 233.492188 143.667969 L 234.964844 133.847656 L 236.4375 124.460938 L 237.910156 114.894531 L 239.386719 105.273438 L 240.859375 96.988281 L 242.332031 88.917969 L 243.804688 81.144531 L 245.28125 73.738281 L 246.753906 67.078125 L 248.226563 60.96875 L 249.699219 55.058594 L 251.175781 50.003906 L 252.648438 45.96875 L 254.121094 42.523438 L 255.59375 40.242188 L 257.070313 38.246094 L 258.542969 36.324219 L 260.015625 35.90625 L 261.488281 36.089844 L 262.964844 37.101563 L 264.4375 38.90625 L 265.910156 41.324219 L 267.382813 44.339844 L 268.859375 48.480469 L 270.332031 52.992188 L 271.804688 58.203125 L 273.277344 64.789063 L 274.753906 71.738281 L 276.226563 78.785156 L 277.699219 86.6875 L 279.171875 94.664063 L 280.648438 103.414063 L 282.121094 113.144531 L 283.59375 122.972656 L 285.070313 133.4375 L 286.542969 143.941406 L 288.015625 154.234375 L 289.488281 165.28125 L 290.964844 176.75 L 292.4375 187.917969 L 293.910156 199.039063 L 295.382813 210.273438 L 296.859375 221.578125 L 298.332031 232.574219 L 299.804688 243.683594 L 301.277344 254.722656 L 302.753906 265.421875 L 304.226563 276.242188 L 305.699219 286.785156 L 307.171875 296.753906 L 308.648438 306.464844 L 310.121094 315.402344 L 311.59375 324.542969 L 313.066406 333.277344 L 314.542969 341.410156 L 316.015625 349.242188 L 317.488281 356.535156 L 318.960938 363.535156 L 320.4375 370.203125 L 321.910156 376.230469 L 323.382813 381.894531 L 324.855469 387.3125 L 326.332031 392.285156 L 327.804688 396.648438 L 329.277344 400.84375 L 330.75 404.800781 L 332.226563 408.214844 L 333.699219 411.324219 L 335.171875 414.28125 L 336.644531 416.953125 L 338.121094 419.28125 L 339.59375 421.292969 L 341.066406 423.0625 L 342.539063 424.566406 L 344.015625 425.972656 L 345.488281 427.261719 L 346.960938 428.359375 L 348.433594 429.3125 L 349.910156 430.136719 L 351.382813 430.824219 L 352.855469 431.390625 L 354.328125 431.867188 L 355.804688 432.273438 L 357.277344 432.609375 L 358.75 432.875 L 360.222656 433.121094 L 361.699219 433.332031 L 363.171875 433.480469 L 364.644531 433.59375 L 366.117188 433.691406 L 367.59375 433.773438 L 369.066406 433.835938 L 372.011719 433.90625 L 373.488281 433.933594 L 374.960938 433.953125 L 376.433594 433.96875 L 377.90625 433.976563 L 379.382813 433.984375 L 383.800781 433.996094 L 385.277344 433.996094 L 386.75 434 L 391.171875 434 Z M 97.914063 434 "/>
<g clip-path="url(#clip-4-481feb26)">
<path fill="none" stroke-width="1.8" stroke-linecap="butt" stroke-linejoin="miter" stroke="rgb(100%, 36.862746%, 23.921569%)" stroke-opacity="1" stroke-miterlimit="2" d="M 97.914063 434 L 105.285156 434 L 106.757813 433.996094 L 114.125 433.996094 L 115.597656 433.992188 L 117.074219 433.988281 L 121.492188 433.976563 L 122.96875 433.96875 L 125.914063 433.953125 L 127.386719 433.941406 L 128.863281 433.925781 L 130.335938 433.90625 L 131.808594 433.890625 L 133.28125 433.859375 L 134.757813 433.816406 L 136.230469 433.769531 L 137.703125 433.714844 L 139.175781 433.644531 L 140.652344 433.5625 L 142.125 433.484375 L 143.597656 433.378906 L 145.070313 433.253906 L 146.546875 433.113281 L 148.019531 432.945313 L 149.492188 432.746094 L 150.96875 432.484375 L 152.441406 432.234375 L 153.914063 431.933594 L 155.386719 431.527344 L 156.863281 431.101563 L 158.335938 430.660156 L 159.808594 430.148438 L 161.28125 429.515625 L 162.757813 428.808594 L 164.230469 427.996094 L 165.703125 427.09375 L 167.175781 426.132813 L 168.652344 425.027344 L 170.125 423.824219 L 171.597656 422.53125 L 173.070313 421.023438 L 174.546875 419.253906 L 176.019531 417.320313 L 177.492188 415.304688 L 178.964844 413.132813 L 180.441406 410.707031 L 181.914063 408.109375 L 183.386719 405.226563 L 184.859375 401.972656 L 186.335938 398.480469 L 187.808594 394.742188 L 189.28125 390.859375 L 190.753906 386.8125 L 192.230469 382.171875 L 193.703125 377.253906 L 195.175781 372.105469 L 196.648438 366.546875 L 198.125 360.839844 L 199.597656 354.8125 L 201.070313 348.382813 L 202.542969 341.75 L 204.019531 334.34375 L 205.492188 326.65625 L 206.964844 318.945313 L 208.4375 311.046875 L 209.914063 302.644531 L 211.386719 293.984375 L 212.859375 285.039063 L 214.332031 275.589844 L 215.808594 265.867188 L 217.28125 255.902344 L 218.753906 246.15625 L 220.226563 236.21875 L 221.703125 225.929688 L 223.175781 215.433594 L 224.648438 204.925781 L 226.121094 194.65625 L 227.597656 184.660156 L 229.070313 174.324219 L 230.542969 163.625 L 232.015625 153.441406 L 233.492188 143.667969 L 234.964844 133.847656 L 236.4375 124.460938 L 237.910156 114.894531 L 239.386719 105.273438 L 240.859375 96.988281 L 242.332031 88.917969 L 243.804688 81.144531 L 245.28125 73.738281 L 246.753906 67.078125 L 248.226563 60.96875 L 249.699219 55.058594 L 251.175781 50.003906 L 252.648438 45.96875 L 254.121094 42.523438 L 255.59375 40.242188 L 257.070313 38.246094 L 258.542969 36.324219 L 260.015625 35.90625 L 261.488281 36.089844 L 262.964844 37.101563 L 264.4375 38.90625 L 265.910156 41.324219 L 267.382813 44.339844 L 268.859375 48.480469 L 270.332031 52.992188 L 271.804688 58.203125 L 273.277344 64.789063 L 274.753906 71.738281 L 276.226563 78.785156 L 277.699219 86.6875 L 279.171875 94.664063 L 280.648438 103.414063 L 282.121094 113.144531 L 283.59375 122.972656 L 285.070313 133.4375 L 286.542969 143.941406 L 288.015625 154.234375 L 289.488281 165.28125 L 290.964844 176.75 L 292.4375 187.917969 L 293.910156 199.039063 L 295.382813 210.273438 L 296.859375 221.578125 L 298.332031 232.574219 L 299.804688 243.683594 L 301.277344 254.722656 L 302.753906 265.421875 L 304.226563 276.242188 L 305.699219 286.785156 L 307.171875 296.753906 L 308.648438 306.464844 L 310.121094 315.402344 L 311.59375 324.542969 L 313.066406 333.277344 L 314.542969 341.410156 L 316.015625 349.242188 L 317.488281 356.535156 L 318.960938 363.535156 L 320.4375 370.203125 L 321.910156 376.230469 L 323.382813 381.894531 L 324.855469 387.3125 L 326.332031 392.285156 L 327.804688 396.648438 L 329.277344 400.84375 L 330.75 404.800781 L 332.226563 408.214844 L 333.699219 411.324219 L 335.171875 414.28125 L 336.644531 416.953125 L 338.121094 419.28125 L 339.59375 421.292969 L 341.066406 423.0625 L 342.539063 424.566406 L 344.015625 425.972656 L 345.488281 427.261719 L 346.960938 428.359375 L 348.433594 429.3125 L 349.910156 430.136719 L 351.382813 430.824219 L 352.855469 431.390625 L 354.328125 431.867188 L 355.804688 432.273438 L 357.277344 432.609375 L 358.75 432.875 L 360.222656 433.121094 L 361.699219 433.332031 L 363.171875 433.480469 L 364.644531 433.59375 L 366.117188 433.691406 L 367.59375 433.773438 L 369.066406 433.835938 L 372.011719 433.90625 L 373.488281 433.933594 L 374.960938 433.953125 L 376.433594 433.96875 L 377.90625 433.976563 L 379.382813 433.984375 L 383.800781 433.996094 L 385.277344 433.996094 L 386.75 434 L 391.171875 434 "/>
</g>
<path fill="none" stroke-width="2" stroke-linecap="butt" stroke-linejoin="miter" stroke="rgb(0%, 0%, 0%)" stroke-opacity="1" stroke-miterlimit="1.154701" d="M 15 434 L 435 434 "/>
</svg>
